<mxfile host="app.diagrams.net" modified="2023-04-25T12:32:22.140Z" agent="Mozilla/5.0 (Windows NT 10.0; Win64; x64) AppleWebKit/537.36 (KHTML, like Gecko) Chrome/112.0.0.0 Safari/537.36" etag="A9LH3fGto8A0HiAhUCjd" version="21.2.1" type="device">
  <diagram id="20FPQ8uYW3PnHkyBk6Px" name="第 1 页">
    <mxGraphModel dx="1196" dy="743" grid="1" gridSize="10" guides="1" tooltips="1" connect="1" arrows="1" fold="1" page="1" pageScale="1" pageWidth="827" pageHeight="1169" math="0" shadow="0">
      <root>
        <mxCell id="0" />
        <mxCell id="1" parent="0" />
        <mxCell id="YJU89BmppWxkgixd6FOr-1" value="" style="rounded=1;whiteSpace=wrap;html=1;dashed=1;dashPattern=8 8;" parent="1" vertex="1">
          <mxGeometry x="90" y="160" width="460" height="130" as="geometry" />
        </mxCell>
        <mxCell id="7yGNfjj5XseFMZGvfWnS-1" value="CodeBERT" style="rounded=0;whiteSpace=wrap;html=1;" vertex="1" parent="1">
          <mxGeometry x="130" y="190" width="120" height="60" as="geometry" />
        </mxCell>
      </root>
    </mxGraphModel>
  </diagram>
</mxfile>
